<?xml version="1.0" standalone="no"?>
<!DOCTYPE svg PUBLIC "-//W3C//DTD SVG 20010904//EN"
 "http://www.w3.org/TR/2001/REC-SVG-20010904/DTD/svg10.dtd">
<svg version="1.0" xmlns="http://www.w3.org/2000/svg"
 width="24.000000pt" height="32.000000pt" viewBox="0 0 24.000000 32.000000"
 preserveAspectRatio="xMidYMid meet">

<g transform="translate(0.000000,32.000000) scale(0.100000,-0.100000)"
fill="#000000" stroke="none">
<path d="M4 307 c-2 -7 -3 -78 -2 -157 l3 -145 39 -3 c24 -2 42 2 47 10 14 21
11 282 -3 296 -16 16 -77 15 -84 -1z"/>
<path d="M151 306 c-8 -9 -11 -60 -9 -157 l3 -144 45 0 45 0 3 144 c2 97 -1
148 -9 157 -15 18 -63 18 -78 0z"/>
</g>
</svg>
