<?xml version="1.0" standalone="no"?>
<!DOCTYPE svg PUBLIC "-//W3C//DTD SVG 20010904//EN"
 "http://www.w3.org/TR/2001/REC-SVG-20010904/DTD/svg10.dtd">
<svg version="1.0" xmlns="http://www.w3.org/2000/svg"
 width="54.000000pt" height="31.000000pt" viewBox="0 0 54.000000 31.000000"
 preserveAspectRatio="xMidYMid meet">

<g transform="translate(0.000000,31.000000) scale(0.100000,-0.100000)"
fill="#000000" stroke="none">
<path d="M11 297 c-18 -18 -15 -286 3 -293 16 -6 43 6 166 81 l90 53 0 -64 c0
-48 4 -66 15 -70 14 -6 238 116 250 136 12 19 -11 39 -107 95 -56 33 -110 63
-119 67 -26 10 -38 -11 -41 -74 l-3 -56 -105 62 c-125 74 -134 78 -149 63z"/>
</g>
</svg>
